<svg width="48" height="48" viewBox="0 0 48 48" fill="none" xmlns="http://www.w3.org/2000/svg">
<path d="M47 23.2419V24.7596C46.9856 24.8419 46.9674 24.9227 46.958 25.0047C46.8796 25.6649 46.8289 26.3292 46.7206 26.9845C46.367 29.1141 45.6026 31.0935 44.4668 32.9238C42.7419 35.7026 40.4101 37.8217 37.4797 39.2687C35.7884 40.1079 33.9649 40.6472 32.0899 40.8627C31.6735 40.9108 31.2574 40.9541 30.8409 41H14.6807C14.5993 40.9848 14.5183 40.9605 14.4362 40.9556C12.8067 40.8528 11.2389 40.4806 9.74454 39.8253C6.49123 38.3987 4.06553 36.0866 2.47768 32.9041C1.77603 31.5003 1.32196 29.9855 1.13554 28.4266C1.08973 28.0476 1.04505 27.6689 1 27.2903V25.8178C1.01552 25.7362 1.03937 25.6546 1.0443 25.5727C1.12872 24.1578 1.41835 22.784 1.92833 21.4636C3.30076 17.9108 5.69314 15.2758 9.09297 13.5703C10.8569 12.6851 12.737 12.22 14.7035 12.1168C15.6662 12.0667 16.6283 12.1206 17.5854 12.2492C17.6721 12.2609 17.797 12.2222 17.8572 12.1604C19.2334 10.7516 20.8004 9.60733 22.5674 8.73999C24.2813 7.89883 26.085 7.35665 27.9836 7.13962C28.4304 7.0884 28.8783 7.04629 29.3258 7H30.7035C30.7936 7.01404 30.8841 7.02997 30.9742 7.0406C31.6568 7.12027 32.3432 7.17036 33.0194 7.2838C35.129 7.63855 37.0928 8.39738 38.9101 9.52462C41.6966 11.2532 43.8201 13.5931 45.2709 16.5388C46.11 18.2345 46.6487 20.0634 46.8629 21.944C46.9122 22.3769 46.9542 22.8098 47 23.2419ZM21.2798 13.4216C21.3074 13.458 21.3142 13.4751 21.3259 13.4808C22.2721 13.9481 23.1763 14.4961 24.0288 15.1187C24.0825 15.1578 24.2158 15.1415 24.2809 15.1005C26.6237 13.6128 29.1634 13.0995 31.8916 13.5843C34.5649 14.0594 36.7403 15.3979 38.4024 17.5359C40.2844 19.9555 41.0018 22.6914 40.4824 25.7354C40.1341 27.7755 39.3186 29.6058 37.9325 31.139C35.4035 33.9342 32.2365 35.0903 28.5084 34.6008C26.2133 34.2996 24.2321 33.3074 22.5924 31.6467C20.4877 29.5163 18.3694 27.3999 16.2587 25.2752C15.9774 24.9922 15.6643 24.7645 15.2592 24.7148C14.5516 24.6279 13.9095 24.9819 13.604 25.619C13.3314 26.1877 13.3666 26.8289 13.958 27.4117C16.311 29.7265 18.6432 32.0625 20.9935 34.3796C21.3958 34.7782 21.8272 35.1461 22.2842 35.4803C24.0011 36.7297 25.9369 37.4206 28.0332 37.6987C29.6786 37.9165 31.3112 37.8698 32.9312 37.5048C36.0213 36.8094 38.5811 35.2287 40.5971 32.7899C42.2618 30.7744 43.2685 28.4585 43.6195 25.8584C43.8229 24.3757 43.7804 22.8695 43.4938 21.4006C43.0262 18.9989 42.0123 16.85 40.3877 15.0208C37.2881 11.5329 33.3885 9.97574 28.748 10.3233C26.9629 10.4568 25.2744 10.9823 23.6854 11.8159C22.8279 12.2624 22.0213 12.8007 21.2798 13.4216ZM20.1443 37.7708C20.0805 37.7115 20.0169 37.652 19.9535 37.5921C18.9915 36.6819 18.0242 35.7774 17.0735 34.8554C16.8895 34.6771 16.7203 34.5902 16.4598 34.5963C15.497 34.6198 14.5335 34.624 13.5847 34.4092C8.86733 33.34 6.12815 28.2001 7.86668 23.6775C9.23797 20.1114 13.0342 17.9396 16.7778 18.6093C18.4558 18.9094 19.9285 19.6212 21.1374 20.8706C22.6117 22.3958 24.1299 23.8774 25.62 25.3871C25.9593 25.7309 26.3488 25.8876 26.8187 25.8204C27.426 25.7335 27.9094 25.4437 28.129 24.8468C28.3441 24.2595 28.24 23.7033 27.7962 23.2529C26.2322 21.6651 24.7053 20.0374 23.0781 18.5171C19.9221 15.5672 16.2004 14.69 12.0843 15.9443C6.54802 17.63 3.30795 23.3592 4.57286 29.0124C5.7257 34.1633 10.2208 37.7784 15.4807 37.783C16.9493 37.7845 18.4183 37.7837 19.8869 37.783C19.9596 37.783 20.0323 37.7765 20.1443 37.7708Z" fill="#DA1F26"/>
</svg>
