<svg width="48" height="48" viewBox="0 0 48 48" fill="none" xmlns="http://www.w3.org/2000/svg">
<path d="M40.8545 16.9996C40.598 17.1976 36.0693 19.7364 36.0693 25.3816C36.0693 31.9112 41.8319 34.2212 42.0044 34.2784C41.9779 34.4192 41.0889 37.442 38.9661 40.522C37.0732 43.2324 35.0963 45.9384 32.0889 45.9384C29.0816 45.9384 28.3076 44.2004 24.8359 44.2004C21.4526 44.2004 20.2496 45.9956 17.4988 45.9956C14.7479 45.9956 12.8285 43.4876 10.6216 40.4076C8.06536 36.7908 6 31.172 6 25.8392C6 17.2856 11.5902 12.7492 17.0919 12.7492C20.0152 12.7492 22.4521 14.6588 24.2875 14.6588C26.0344 14.6588 28.7587 12.6348 32.0845 12.6348C33.345 12.6348 37.8737 12.7492 40.8545 16.9996V16.9996ZM30.5057 9.0136C31.8811 7.39 32.8541 5.1372 32.8541 2.8844C32.8541 2.572 32.8275 2.2552 32.77 2C30.5322 2.0836 27.8698 3.4828 26.2644 5.3352C25.0039 6.7608 23.8275 9.0136 23.8275 11.2972C23.8275 11.6404 23.885 11.9836 23.9116 12.0936C24.0531 12.12 24.283 12.1508 24.513 12.1508C26.5209 12.1508 29.0462 10.8132 30.5057 9.0136Z" fill="black"/>
</svg>
