<svg width="48" height="48" viewBox="0 0 48 48" fill="none" xmlns="http://www.w3.org/2000/svg">
<path fill-rule="evenodd" clip-rule="evenodd" d="M22.923 8.40332C24.4993 8.40332 25.9354 9.30862 26.6142 10.728L32.022 22.061C32.022 22.061 32.022 22.0666 32.0164 22.0666C32.0164 22.0666 32.0164 22.061 32.022 22.061C33.2898 20.513 34.2098 18.6913 34.6025 16.7354C35.0457 14.528 37.1998 13.103 39.4157 13.5389C39.9424 13.6437 40.4433 13.8509 40.8897 14.1487C41.3361 14.4464 41.7192 14.8288 42.0172 15.274C42.3152 15.7193 42.5222 16.2187 42.6264 16.7437C42.7306 17.2686 42.7299 17.8089 42.6244 18.3336C41.7156 22.8545 39.18 26.8948 35.7469 29.8621L37.7103 33.9751C38.7986 36.2551 37.6598 39.0436 35.2476 39.7589L35.1747 39.7813C34.8156 39.8819 34.4454 39.9322 34.0864 39.9322C32.5549 39.9322 31.0908 39.0716 30.3896 37.6074L28.6449 33.9527L25.0939 26.5092H25.1052H25.0939L23.3493 22.8545C23.3114 22.7754 23.2518 22.7085 23.1773 22.6617C23.1028 22.6149 23.0166 22.5901 22.9286 22.5901C22.8405 22.5901 22.7543 22.6149 22.6798 22.6617C22.6054 22.7085 22.5458 22.7754 22.5078 22.8545L20.7239 26.5874C18.0032 26.0119 15.2656 24.3354 13.7174 22.2957L19.2317 10.7392C19.56 10.0402 20.0817 9.44914 20.7356 9.03536C21.3895 8.62158 22.1483 8.40231 22.923 8.40332V8.40332ZM7.46809 18.451C9.56053 17.6071 11.9447 18.613 12.7917 20.703C13.0105 21.2451 13.3247 21.776 13.7118 22.2845L13.7174 22.2901L13.9025 22.5248C13.9193 22.5471 13.9361 22.5639 13.953 22.5863L14.0035 22.6477C14.0315 22.6757 14.0539 22.7092 14.082 22.7371C14.0876 22.7427 14.0932 22.7483 14.0932 22.7539L14.082 22.7371C14.1886 22.8657 14.3064 22.9886 14.4242 23.1116C14.4298 23.1172 14.4298 23.1227 14.4354 23.1227C14.8225 23.5251 15.2544 23.9051 15.72 24.2571C15.9388 24.4248 16.1632 24.5813 16.3932 24.7377C16.4157 24.7489 16.4325 24.7657 16.4549 24.7769C17.7508 25.6263 19.2374 26.2633 20.7183 26.5763C21.3466 26.7104 21.9749 26.783 22.5864 26.7886H22.6649C23.4783 26.7886 24.2917 26.688 25.0883 26.498L28.6393 33.9416C26.7208 34.5842 24.7069 34.9363 22.6649 34.9363C20.8249 34.9363 18.9625 34.6177 17.1561 34.0422L15.4564 37.6019C15.219 38.099 14.8829 38.5431 14.4684 38.9072C14.0539 39.2714 13.5695 39.548 13.0446 39.7203C12.5198 39.8927 11.9652 39.9573 11.4146 39.9101C10.864 39.863 10.3287 39.7051 9.84102 39.446C7.88882 38.4121 7.17638 35.9757 8.12443 33.9863L9.98687 30.0857C7.88321 28.3142 6.2059 26.1627 5.23541 23.8269L5.20736 23.7542C4.36589 21.6698 5.37565 19.2948 7.46809 18.451V18.451Z" fill="black"/>
<path fill-rule="evenodd" clip-rule="evenodd" d="M22.923 8.40332C24.4993 8.40332 25.9354 9.30862 26.6142 10.728L32.022 22.061C32.022 22.061 32.022 22.0666 32.0164 22.0666C32.0164 22.0666 32.0164 22.061 32.022 22.061C33.2898 20.513 34.2098 18.6913 34.6025 16.7354C35.0457 14.528 37.1998 13.103 39.4157 13.5389C39.9424 13.6437 40.4433 13.8509 40.8897 14.1487C41.3361 14.4464 41.7192 14.8288 42.0172 15.274C42.3152 15.7193 42.5222 16.2187 42.6264 16.7437C42.7306 17.2686 42.7299 17.8089 42.6244 18.3336C41.7156 22.8545 39.18 26.8948 35.7469 29.8621L37.7103 33.9751C38.7986 36.2551 37.6598 39.0436 35.2476 39.7589L35.1747 39.7813C34.8156 39.8819 34.4454 39.9322 34.0864 39.9322C32.5549 39.9322 31.0908 39.0716 30.3896 37.6074L28.6449 33.9527L25.0939 26.5092H25.1052H25.0939L23.3493 22.8545C23.3114 22.7754 23.2518 22.7085 23.1773 22.6617C23.1028 22.6149 23.0166 22.5901 22.9286 22.5901C22.8405 22.5901 22.7543 22.6149 22.6798 22.6617C22.6054 22.7085 22.5458 22.7754 22.5078 22.8545L20.7239 26.5874C18.0032 26.0119 15.2656 24.3354 13.7174 22.2957L19.2317 10.7392C19.56 10.0402 20.0817 9.44914 20.7356 9.03536C21.3895 8.62158 22.1483 8.40231 22.923 8.40332V8.40332ZM7.46809 18.451C9.56053 17.6071 11.9447 18.613 12.7917 20.703C13.0105 21.2451 13.3247 21.776 13.7118 22.2845L13.7174 22.2901L13.9025 22.5248C13.9193 22.5471 13.9361 22.5639 13.953 22.5863L14.0035 22.6477C14.0315 22.6757 14.0539 22.7092 14.082 22.7371C14.0876 22.7427 14.0932 22.7483 14.0932 22.7539L14.082 22.7371C14.1886 22.8657 14.3064 22.9886 14.4242 23.1116C14.4298 23.1172 14.4298 23.1227 14.4354 23.1227C14.8225 23.5251 15.2544 23.9051 15.72 24.2571C15.9388 24.4248 16.1632 24.5813 16.3932 24.7377C16.4157 24.7489 16.4325 24.7657 16.4549 24.7769C17.7508 25.6263 19.2374 26.2633 20.7183 26.5763C21.3466 26.7104 21.9749 26.783 22.5864 26.7886H22.6649C23.4783 26.7886 24.2917 26.688 25.0883 26.498L28.6393 33.9416C26.7208 34.5842 24.7069 34.9363 22.6649 34.9363C20.8249 34.9363 18.9625 34.6177 17.1561 34.0422L15.4564 37.6019C15.219 38.099 14.8829 38.5431 14.4684 38.9072C14.0539 39.2714 13.5695 39.548 13.0446 39.7203C12.5198 39.8927 11.9652 39.9573 11.4146 39.9101C10.864 39.863 10.3287 39.7051 9.84102 39.446C7.88882 38.4121 7.17638 35.9757 8.12443 33.9863L9.98687 30.0857C7.88321 28.3142 6.2059 26.1627 5.23541 23.8269L5.20736 23.7542C4.36589 21.6698 5.37565 19.2948 7.46809 18.451V18.451Z" fill="white"/>
<path fill-rule="evenodd" clip-rule="evenodd" d="M31.9765 13.9894C33.5027 11.1404 36.7654 9.5167 40.0786 10.1684L40.0861 10.1699C41.0538 10.3625 41.9745 10.7432 42.7957 11.2909C43.6169 11.8386 44.3226 12.5427 44.8719 13.3635C45.4212 14.1844 45.8033 15.1057 45.9956 16.0749C46.188 17.0441 46.1868 18.0417 45.9921 19.0105C45.1005 23.4458 42.8981 27.4356 39.9136 30.6171L40.8102 32.4952C42.7416 36.5417 40.8052 41.6822 36.2413 43.047L36.1813 43.0654C36.1547 43.0735 36.1281 43.0814 36.1014 43.0888C35.4429 43.2733 34.7609 43.3671 34.0864 43.3671C31.2824 43.3671 28.585 41.7918 27.2915 39.0911L26.7604 37.9786C25.4232 38.2349 24.0531 38.3712 22.6649 38.3712C21.4498 38.3712 20.2403 38.257 19.0513 38.0449L18.5562 39.0817C18.1183 39.9989 17.4985 40.8175 16.7353 41.4879C15.9721 42.1584 15.0811 42.667 14.1164 42.9838C13.1517 43.3006 12.133 43.4192 11.1215 43.3325C10.1108 43.246 9.12763 42.9563 8.23137 42.4804C4.53724 40.5227 3.34218 36.0366 5.02352 32.5085L5.81334 30.8543C4.24077 29.1731 2.93739 27.2486 2.06328 25.1447C2.05217 25.118 2.04139 25.0911 2.03096 25.064L2.01094 25.0122C0.477415 21.1703 2.34499 16.8131 6.18337 15.2652C8.49777 14.3319 11.0103 14.6296 12.9839 15.8564L16.1277 9.26797C16.735 7.98036 17.6967 6.89337 18.8988 6.13268C20.1035 5.37031 21.5002 4.96683 22.9252 4.96827C25.8224 4.96913 28.4634 6.63287 29.7131 9.24605L31.9765 13.9894Z" fill="white"/>
<path fill-rule="evenodd" clip-rule="evenodd" d="M17.1561 34.0422L20.7183 26.5763C17.9976 26.0007 15.2601 24.3243 13.7118 22.2845L9.98688 30.0857C12.0569 31.8348 14.542 33.2095 17.1561 34.0422" fill="#1A007F"/>
<path fill-rule="evenodd" clip-rule="evenodd" d="M32.022 22.0609C30.2325 24.2459 27.7473 25.8665 25.0883 26.498L28.6393 33.9415C31.231 33.0697 33.6544 31.6615 35.7469 29.8565L32.022 22.0609V22.0609Z" fill="#4E000A"/>
<path fill-rule="evenodd" clip-rule="evenodd" d="M9.98689 30.0857L8.12445 33.9863C7.17641 35.9701 7.88885 38.4122 9.84104 39.446C11.911 40.5413 14.4579 39.6863 15.4564 37.6019L17.1562 34.0422C14.5313 33.1992 12.0963 31.8554 9.98689 30.0857Z" fill="#1A007F"/>
<path fill-rule="evenodd" clip-rule="evenodd" d="M39.4156 13.5445C38.8889 13.4394 38.3465 13.4388 37.8195 13.5426C37.2926 13.6464 36.7912 13.8526 36.3443 14.1494C35.8973 14.4462 35.5134 14.8279 35.2146 15.2726C34.9157 15.7172 34.7077 16.2162 34.6025 16.741C34.2098 18.6969 33.2898 20.5186 32.022 22.0666L35.7412 29.8677C39.1744 26.9004 41.71 22.8601 42.6188 18.3392C43.062 16.1263 41.6259 13.9804 39.4156 13.5445" fill="#FF9396"/>
<path fill-rule="evenodd" clip-rule="evenodd" d="M25.0883 26.498C24.2917 26.688 23.4783 26.7886 22.6649 26.7886C22.031 26.7886 21.3747 26.716 20.7183 26.5763C17.9976 26.0007 15.26 24.3242 13.7118 22.2845C13.3247 21.776 13.0105 21.2451 12.7917 20.703C11.9447 18.6186 9.56053 17.6127 7.46809 18.451C5.37565 19.2948 4.36589 21.6698 5.20736 23.7542C6.16663 26.1236 7.86077 28.2974 9.98687 30.0857C12.0943 31.8553 14.5274 33.1991 17.1505 34.0421C18.9513 34.6177 20.8193 34.9363 22.6593 34.9363C24.7013 34.9363 26.7152 34.5842 28.6337 33.9416L25.0883 26.498Z" fill="#002DC8"/>
<path fill-rule="evenodd" clip-rule="evenodd" d="M37.7047 33.9695L35.7412 29.8566L32.022 22.061L32.0164 22.0666C32.0164 22.0666 32.0164 22.061 32.022 22.061L26.6142 10.728C26.2822 10.0327 25.7593 9.44537 25.106 9.03394C24.4528 8.62251 23.6958 8.40386 22.923 8.40332C21.3466 8.40332 19.9105 9.30862 19.2317 10.728L13.7173 22.2845C15.2656 24.3242 18.0032 26.0007 20.7239 26.5763L22.5078 22.8433C22.6761 22.4913 23.181 22.4913 23.3493 22.8433L25.0939 26.498H25.1052H25.0939L28.6449 33.9416L30.3895 37.5963C30.7213 38.2929 31.2449 38.8813 31.8994 39.2929C32.5539 39.7045 33.3124 39.9223 34.0864 39.921C34.451 39.921 34.8156 39.8707 35.1747 39.7701C37.6373 39.0939 38.8042 36.2719 37.7047 33.9695" fill="#FF536A"/>
<path fill-rule="evenodd" clip-rule="evenodd" d="M17.1561 34.0421L20.7183 26.5762C17.9976 26.0006 15.26 24.3241 13.7118 22.2844L9.98688 30.0856C12.0569 31.8347 14.542 33.2094 17.1561 34.0421" fill="#1A007F"/>
<path fill-rule="evenodd" clip-rule="evenodd" d="M32.022 22.0609C30.2325 24.2459 27.7473 25.8665 25.0883 26.498L28.6393 33.9415C31.231 33.0697 33.6544 31.6615 35.7469 29.8565L32.022 22.0609Z" fill="#4E000A"/>
<path fill-rule="evenodd" clip-rule="evenodd" d="M9.98683 30.0856L8.12439 33.9862C7.17634 35.97 7.88878 38.412 9.84098 39.4459C11.911 40.5412 14.4578 39.6862 15.4563 37.6017L17.1561 34.042C14.5313 33.1991 12.0963 31.8553 9.98683 30.0856" fill="#1A007F"/>
<path fill-rule="evenodd" clip-rule="evenodd" d="M39.4156 13.5445C38.8889 13.4394 38.3465 13.4388 37.8195 13.5426C37.2926 13.6464 36.7913 13.8526 36.3443 14.1494C35.8973 14.4462 35.5134 14.8279 35.2146 15.2726C34.9157 15.7172 34.7077 16.2162 34.6025 16.741C34.2098 18.6968 33.2898 20.5186 32.022 22.0666L35.7412 29.8677C39.1744 26.9004 41.71 22.8601 42.6188 18.3392C43.062 16.1263 41.6259 13.9804 39.4156 13.5445" fill="#FF9396"/>
<path fill-rule="evenodd" clip-rule="evenodd" d="M25.0883 26.498C24.2917 26.688 23.4783 26.7886 22.6649 26.7886C22.031 26.7886 21.3747 26.716 20.7183 26.5763C17.9976 26.0007 15.26 24.3242 13.7117 22.2845C13.3247 21.776 13.0105 21.2451 12.7917 20.703C11.9447 18.6186 9.56053 17.6127 7.46809 18.451C5.37565 19.2948 4.36589 21.6698 5.20736 23.7542C6.16663 26.1236 7.86077 28.2974 9.98687 30.0857C12.0943 31.8553 14.5274 33.1991 17.1505 34.0421C18.9513 34.6177 20.8193 34.9363 22.6593 34.9363C24.7013 34.9363 26.7152 34.5842 28.6337 33.9416L25.0883 26.498Z" fill="#002DC8"/>
<path fill-rule="evenodd" clip-rule="evenodd" d="M37.7047 33.9695L35.7412 29.8566L32.022 22.061L32.0164 22.0666C32.0164 22.0666 32.0164 22.061 32.022 22.061L26.6142 10.728C26.2822 10.0327 25.7593 9.44537 25.106 9.03394C24.4528 8.62251 23.6958 8.40386 22.923 8.40332C21.3466 8.40332 19.9105 9.30861 19.2317 10.728L13.7173 22.2845C15.2656 24.3242 18.0032 26.0007 20.7239 26.5763L22.5078 22.8433C22.6761 22.4913 23.181 22.4913 23.3493 22.8433L25.0939 26.498H25.1052H25.0939L28.6449 33.9416L30.3895 37.5963C30.7213 38.2929 31.2449 38.8813 31.8994 39.2929C32.5539 39.7045 33.3124 39.9223 34.0864 39.921C34.451 39.921 34.8156 39.8707 35.1747 39.7701C37.6373 39.0939 38.8042 36.2719 37.7047 33.9695" fill="#FF536A"/>
</svg>
