<svg width="48" height="48" viewBox="0 0 48 48" fill="none" xmlns="http://www.w3.org/2000/svg">
<path d="M14.596 35.7072C16.381 35.5839 17.8661 34.9282 19.766 33.6616C20.8868 32.9163 22.1142 31.843 23.8123 30.554C31.5546 24.6836 47 13.29 47 13.29H42.2027C38.8822 15.7727 26.5135 24.9357 26.5135 24.9357C25.8494 25.4654 24.9415 25.9501 23.986 25.9557C22.994 25.9585 22.414 25.7764 21.3436 25.0646C21.3436 25.0646 6.43336 13.814 5.76084 13.29H1L21.4108 28.6598C21.4108 28.6598 20.6963 29.3071 19.3905 30.3327C17.3757 31.8879 16.2325 32.9331 13.5732 32.9219C13.5732 32.9219 14.2065 32.9219 13.8114 32.9219C13.4163 32.9219 12.797 32.9219 12.797 32.9219V35.7044H14.596V35.7072Z" fill="black"/>
</svg>
