<svg viewBox="0 0 48 48" fill="none" xmlns="http://www.w3.org/2000/svg">
<path d="M16.0096 48C20.4256 48 24.0096 44.416 24.0096 40V32H16.0096C11.5936 32 8.00964 35.584 8.00964 40C8.00964 44.416 11.5936 48 16.0096 48Z" fill="#0ACF83"/>
<path d="M8.00964 24C8.00964 19.584 11.5936 16 16.0096 16H24.0096V32H16.0096C11.5936 32 8.00964 28.416 8.00964 24Z" fill="#A259FF"/>
<path d="M8.00964 8C8.00964 3.584 11.5936 0 16.0096 0H24.0096V16H16.0096C11.5936 16 8.00964 12.416 8.00964 8Z" fill="#F24E1E"/>
<path d="M24.0096 0H32.0096C36.4256 0 40.0096 3.584 40.0096 8C40.0096 12.416 36.4256 16 32.0096 16H24.0096V0Z" fill="#FF7262"/>
<path d="M40.0096 24C40.0096 28.416 36.4256 32 32.0096 32C27.5936 32 24.0096 28.416 24.0096 24C24.0096 19.584 27.5936 16 32.0096 16C36.4256 16 40.0096 19.584 40.0096 24Z" fill="#1ABCFE"/>
</svg>
