<svg viewBox="0 0 48 48" fill="none" xmlns="http://www.w3.org/2000/svg">
<path fill-rule="evenodd" clip-rule="evenodd" d="M5.94531 23.9993C7.07104 27.5459 9.00268 30.6423 11.4714 33.0313L15.7711 28.8134C14.9062 27.353 14.4461 25.6796 14.4605 23.962C14.4817 21.4423 15.5224 19.0341 17.3536 17.2671C19.1848 15.5001 21.6566 14.5191 24.2252 14.5399C26.7937 14.5606 29.2486 15.5815 31.0499 17.3779C32.8512 19.1743 33.8512 21.599 33.83 24.1187C33.8088 26.6384 32.7681 29.0467 30.9369 30.8137C29.1057 32.5807 26.6339 33.5617 24.0654 33.5409C22.3267 33.5268 20.6401 33.0545 19.1731 32.1936L13.7084 37.5544C13.6282 37.6331 13.5437 37.7051 13.4558 37.7704C12.6229 38.7883 11.1072 38.9564 10.0634 38.1443C5.82711 34.8482 2.65337 30.1129 1.08985 24.641C0.970161 24.2221 0.970048 23.7791 1.08952 23.3601C4.07595 12.8883 13.0707 5 24 5C34.9319 5 43.9241 12.8885 46.9105 23.3601C47.0298 23.7787 47.0298 24.2213 46.9105 24.6399C43.9241 35.1115 34.9319 43 24 43C23.167 43 22.3424 42.9547 21.5242 42.8638C20.1956 42.7161 19.2406 41.5398 19.3912 40.2364C19.5418 38.9331 20.7409 37.9963 22.0695 38.144C22.7039 38.2145 23.3465 38.25 24 38.25C32.1785 38.25 39.3781 32.4532 42.0549 24C39.3781 15.5468 32.1785 9.75 24 9.75C15.8239 9.75 8.62236 15.5467 5.94531 23.9993ZM24.1852 19.2897C22.9008 19.2793 21.6648 19.7698 20.7491 20.6534C19.8334 21.537 19.3131 22.7412 19.3025 24.0012C19.2919 25.2611 19.7919 26.4736 20.6926 27.3719C21.5933 28.2702 22.8209 28.7807 24.1053 28.7911C25.3897 28.8015 26.6257 28.3109 27.5414 27.4273C28.4571 26.5437 28.9775 25.3395 28.9881 24.0796C28.9987 22.8196 28.4986 21.6071 27.5979 20.7088C26.6972 19.8106 25.4696 19.3001 24.1852 19.2897Z" fill="url(#paint0_linear_4_38)"/>
<defs>
<linearGradient id="paint0_linear_4_38" x1="1" y1="43" x2="47" y2="5" gradientUnits="userSpaceOnUse">
<stop stop-color="#D12686"/>
<stop offset="0.0001" stop-color="#D12686"/>
<stop offset="1" stop-color="#A521DB"/>
</linearGradient>
</defs>
</svg>
