<svg width="48" height="48" viewBox="0 0 48 48" fill="none" xmlns="http://www.w3.org/2000/svg">
	<g clip-path="url(#clip0_248_2)">
		<path
			d="M28.1 23.9634C28.1 26.2278 26.2644 28.0634 24 28.0634C21.7357 28.0634 19.9 26.2278 19.9 23.9634C19.9 21.6991 21.7357 19.8634 24 19.8634C26.2644 19.8634 28.1 21.6991 28.1 23.9634Z"
			fill="#61DAFB"
		/>
		<path
			fill-rule="evenodd"
			clip-rule="evenodd"
			d="M23.9999 8.53472C23.3278 7.88123 22.6581 7.28318 21.9964 6.7454C20.2875 5.35645 18.5894 4.33481 17.0038 3.82187C15.4184 3.30898 13.8348 3.27422 12.5 4.04488C11.1651 4.81555 10.4035 6.20437 10.0549 7.83382C9.70638 9.46342 9.74209 11.4448 10.0905 13.6193C10.2254 14.4612 10.4085 15.3402 10.6383 16.249C9.73631 16.5044 8.88352 16.7853 8.08695 17.0895C6.02959 17.875 4.29578 18.8348 3.05879 19.9514C1.8219 21.068 1 22.4221 1 23.9634C1 25.5047 1.8219 26.8588 3.05879 27.9753C4.29578 29.092 6.02959 30.0518 8.08695 30.8373C8.88353 31.1415 9.73632 31.4224 10.6383 31.6777C10.4085 32.5866 10.2254 33.4656 10.0905 34.3075C9.74209 36.482 9.70638 38.4634 10.0549 40.093C10.4035 41.7225 11.1651 43.1113 12.5 43.882C13.8348 44.6526 15.4184 44.6179 17.0038 44.105C18.5894 43.592 20.2875 42.5704 21.9964 41.1814C22.6581 40.6437 23.3278 40.0456 23.9999 39.3921C24.6721 40.0456 25.3418 40.6437 26.0035 41.1815C27.7125 42.5705 29.4106 43.5921 30.9961 44.1051C32.5816 44.618 34.1651 44.6527 35.5 43.8821C36.8348 43.1114 37.5965 41.7226 37.945 40.0931C38.2936 38.4635 38.2579 36.4821 37.9095 34.3076C37.7746 33.4657 37.5915 32.5866 37.3616 31.6777C38.2637 31.4224 39.1165 31.1415 39.9131 30.8373C41.9704 30.0518 43.7042 29.092 44.9412 27.9753C46.1781 26.8588 47 25.5047 47 23.9634C47 22.4221 46.1781 21.068 44.9412 19.9514C43.7042 18.8348 41.9704 17.875 39.9131 17.0895C39.1165 16.7853 38.2637 16.5044 37.3616 16.249C37.5915 15.3402 37.7746 14.4612 37.9095 13.6192C38.2579 11.4447 38.2936 9.46332 37.945 7.83372C37.5965 6.20427 36.8348 4.81545 35.5 4.04479C34.1651 3.27412 32.5816 3.30888 30.9961 3.82178C29.4106 4.33472 27.7125 5.35635 26.0035 6.74531C25.3418 7.28311 24.6721 7.88119 23.9999 8.53472ZM34.5 5.77684C35.174 6.16597 35.7104 6.94832 35.9893 8.25205C36.2681 9.55564 36.2605 11.2694 35.9347 13.3028C35.8095 14.0841 35.6387 14.9045 35.4231 15.7571C33.5309 15.3288 31.4686 15.0049 29.2885 14.8033C28.0239 13.0161 26.7122 11.3921 25.3953 9.96756C26.0258 9.35455 26.6509 8.79638 27.2649 8.29735C28.863 6.99852 30.3434 6.135 31.6117 5.72468C32.8802 5.31431 33.826 5.38771 34.5 5.77684ZM22.6046 9.96757C21.9741 9.35459 21.349 8.79645 20.735 8.29745C19.137 6.99862 17.6566 6.1351 16.3882 5.72477C15.1197 5.31441 14.174 5.38781 13.5 5.77693C12.826 6.16606 12.2896 6.94841 12.0107 8.25214C11.7319 9.55573 11.7395 11.2695 12.0653 13.3029C12.1905 14.0841 12.3613 14.9046 12.5769 15.7571C14.469 15.3288 16.5313 15.0049 18.7114 14.8033C19.976 13.0161 21.2877 11.3921 22.6046 9.96757ZM34.8762 17.684C33.5844 17.3954 32.2024 17.1561 30.7486 16.9737C31.223 17.7152 31.6878 18.4791 32.1406 19.2635C32.5934 20.0477 33.0226 20.8322 33.4276 21.6137C33.9965 20.2635 34.4802 18.947 34.8762 17.684ZM34.5771 23.9634C35.4926 21.9746 36.2432 20.0266 36.8184 18.1738C37.6645 18.4134 38.4605 18.6757 39.1996 18.9579C41.1235 19.6925 42.6115 20.5428 43.6011 21.436C44.5907 22.3294 45 23.1851 45 23.9634C45 24.7416 44.5907 25.5974 43.6011 26.4908C42.6115 27.384 41.1235 28.2343 39.1996 28.9689C38.4605 29.2511 37.6645 29.5134 36.8184 29.7529C36.2432 27.9002 35.4926 25.9522 34.5771 23.9634ZM32.3665 23.9634C31.7786 22.743 31.1254 21.5051 30.4086 20.2635C29.6917 19.0218 28.9462 17.8371 28.1832 16.7178C26.8323 16.6166 25.4337 16.5634 24 16.5634C22.5663 16.5634 21.1676 16.6166 19.8167 16.7178C19.0537 17.8371 18.3083 19.0217 17.5914 20.2634C16.8745 21.505 16.2213 22.7429 15.6335 23.9634C16.2213 25.1839 16.8745 26.4218 17.5914 27.6635C18.3082 28.9051 19.0537 30.0897 19.8167 31.209C21.1676 31.3101 22.5662 31.3634 24 31.3634C25.4337 31.3634 26.8324 31.3101 28.1832 31.209C28.9463 30.0897 29.6917 28.905 30.4086 27.6634C31.1254 26.4217 31.7786 25.1839 32.3665 23.9634ZM30.7487 30.9531C31.223 30.2116 31.6878 29.4477 32.1406 28.6634C32.5934 27.8791 33.0226 27.0946 33.4276 26.3131C33.9965 27.6633 34.4802 28.9798 34.8761 30.2428C33.5844 30.5313 32.2024 30.7707 30.7487 30.9531ZM26.6789 33.3028C25.7996 33.3428 24.9056 33.3634 24 33.3634C23.0944 33.3634 22.2003 33.3428 21.321 33.3028C22.2058 34.4706 23.1041 35.5477 23.9999 36.5221C24.8958 35.5477 25.7941 34.4706 26.6789 33.3028ZM25.3953 37.9593C26.7122 36.5348 28.0239 34.9107 29.2885 33.1234C31.4687 32.9219 33.5309 32.598 35.4231 32.1697C35.6387 33.0223 35.8095 33.8427 35.9347 34.624C36.2605 36.6574 36.2681 38.3712 35.9893 39.6748C35.7104 40.9785 35.174 41.7609 34.5 42.15C33.826 42.5391 32.8802 42.6125 31.6117 42.2022C30.3434 41.7918 28.863 40.9283 27.2649 39.6295C26.6509 39.1305 26.0258 38.5723 25.3953 37.9593ZM22.6046 37.9593C21.2876 36.5348 19.976 34.9107 18.7114 33.1234C16.5313 32.9219 14.469 32.598 12.5769 32.1697C12.3613 33.0222 12.1905 33.8427 12.0653 34.6239C11.7395 36.6573 11.7319 38.3711 12.0107 39.6747C12.2896 40.9784 12.826 41.7608 13.5 42.1499C14.174 42.539 15.1197 42.6124 16.3882 42.2021C17.6566 41.7917 19.137 40.9282 20.735 39.6294C21.349 39.1304 21.9741 38.5722 22.6046 37.9593ZM13.1238 30.2427C14.4156 30.5313 15.7975 30.7707 17.2512 30.9531C16.7769 30.2116 16.3121 29.4477 15.8593 28.6635C15.4065 27.8792 14.9773 27.0946 14.5723 26.3131C14.0034 27.6633 13.5198 28.9798 13.1238 30.2427ZM14.5723 21.6137C14.9773 20.8322 15.4065 20.0477 15.8593 19.2634C16.3122 18.4791 16.7769 17.7152 17.2513 16.9737C15.7975 17.1561 14.4156 17.3955 13.1238 17.684C13.5198 18.947 14.0034 20.2635 14.5723 21.6137ZM13.4229 23.9634C12.5074 25.9522 11.7567 27.9002 11.1816 29.7529C10.3354 29.5134 9.53951 29.2511 8.80035 28.9689C6.8765 28.2343 5.38848 27.384 4.39895 26.4908C3.40931 25.5974 3 24.7416 3 23.9634C3 23.1851 3.40931 22.3294 4.39895 21.436C5.38848 20.5428 6.8765 19.6925 8.80035 18.9579C9.5395 18.6757 10.3354 18.4134 11.1815 18.1739C11.7567 20.0266 12.5074 21.9746 13.4229 23.9634ZM21.321 14.624C22.2004 14.5839 23.0944 14.5634 24 14.5634C24.9056 14.5634 25.7996 14.5839 26.6789 14.624C25.794 13.4562 24.8957 12.3791 23.9999 11.4047C23.1041 12.3791 22.2059 13.4562 21.321 14.624Z"
			fill="#61DAFB"
		/>
	</g>
	<defs>
		<clipPath id="clip0_248_2">
			<rect width="46" height="40.927" fill="white" transform="translate(1 3.5)" />
		</clipPath>
	</defs>
</svg>
