<svg width="48" height="48" viewBox="0 0 48 48" fill="none" xmlns="http://www.w3.org/2000/svg">
<path d="M35.9886 20.4026V21.3023H36.8671C37.2507 21.3023 37.5028 21.5442 37.6464 21.7006C37.7614 21.8294 40.2914 24.698 40.3521 24.7735C40.4128 24.8489 40.4128 24.8498 40.4128 24.8976V26.3192C40.4127 26.3843 40.4062 26.4493 40.3934 26.5132C40.3754 26.5545 40.3487 26.5913 40.315 26.6212C40.2814 26.6511 40.2416 26.6733 40.1985 26.6863C40.1154 26.6967 40.0318 26.7019 39.9482 26.7019L39.0688 26.7008V27.6005H44.0017V26.7008H43.0735C42.9904 26.7012 42.9073 26.6959 42.825 26.685C42.7819 26.6722 42.7422 26.65 42.7087 26.6202C42.6752 26.5903 42.6486 26.5534 42.6309 26.5121C42.618 26.4482 42.6112 26.3833 42.6108 26.3181V24.8975C42.6053 24.8508 42.6171 24.8037 42.6438 24.765L45.3808 21.6426C45.632 21.3629 45.7627 21.3021 46.092 21.3021H47V20.4024H42.9346V21.3003H43.5482C43.5811 21.2983 43.6138 21.3058 43.6426 21.3219C43.6713 21.338 43.6948 21.362 43.7103 21.3911C43.7258 21.4202 43.7327 21.4531 43.73 21.4859C43.7273 21.5187 43.7153 21.5501 43.6954 21.5763C43.6825 21.5947 41.9933 23.581 41.9722 23.6003C41.951 23.6196 41.9373 23.615 41.9217 23.5938C41.906 23.5727 40.2371 21.5763 40.2371 21.5763C40.1193 21.4319 40.2114 21.3003 40.3494 21.3003H40.9474V20.4024L35.9886 20.4026Z" fill="#0F0F0F"/>
<path d="M23.8897 20.4026V21.3023H24.6771C25.2456 21.3023 25.2844 21.6189 25.2844 21.8949V26.1057C25.2844 26.3578 25.299 26.7037 24.9365 26.7037H23.965V27.6025H28.1134V26.7037H27.1014C26.6975 26.7037 26.6791 26.5188 26.6745 26.126V22.5186L32.372 27.6025H33.821L33.7446 21.8607C33.752 21.4412 33.7778 21.3014 34.212 21.3014H35.12V20.4026H30.888V21.3014H31.8173C32.2442 21.3014 32.3158 21.4661 32.3213 21.8607L32.372 24.8655L27.4261 20.4026H23.8897Z" fill="#0F0F0F"/>
<path d="M5.209 19.95C4.31752 19.95 3.3046 20.1174 2.449 20.502C1.65044 20.8589 1.00001 21.432 1.00001 22.3824C0.998792 22.8801 1.18807 23.3594 1.529 23.722C1.75993 23.9354 2.13258 24.2979 3.10594 24.5113C3.5411 24.6033 4.47123 24.7514 5.39767 24.849C6.32411 24.9465 7.22204 25.033 7.59004 25.1314C7.8826 25.2059 8.37473 25.3072 8.37473 25.8592C8.37473 26.4112 7.85684 26.5767 7.76667 26.6126C7.67651 26.6485 7.05451 26.9337 5.93764 26.9337C5.19764 26.9131 4.46436 26.787 3.76 26.5592C3.34324 26.4102 2.90634 26.2142 2.49878 25.7165C2.33425 25.4821 2.24295 25.2042 2.23643 24.9179H1.22443V27.7516H2.34873V27.368C2.34855 27.3395 2.35596 27.3115 2.3702 27.2869C2.38444 27.2622 2.40499 27.2418 2.42974 27.2278C2.45449 27.2137 2.48255 27.2065 2.51101 27.2069C2.53948 27.2073 2.56732 27.2153 2.59168 27.23C3.12131 27.4604 3.67222 27.6385 4.23654 27.7617C4.82718 27.885 5.20905 27.9743 5.94321 27.9743C6.71788 27.989 7.48994 27.88 8.23026 27.6514C8.72187 27.5166 9.18311 27.2889 9.58906 26.9806C9.81739 26.8052 10.0019 26.5793 10.1282 26.3205C10.2545 26.0618 10.319 25.7773 10.3168 25.4894C10.3207 24.9423 10.1096 24.4157 9.72904 24.0227C9.51737 23.8174 9.27216 23.6497 9.004 23.527C8.71573 23.3967 8.41645 23.2923 8.1097 23.215C7.52642 23.0724 6.21646 22.894 5.58994 22.8314C4.93306 22.7633 3.79314 22.6685 3.33774 22.5278C3.19974 22.4845 2.91817 22.3512 2.91817 22.0246C2.91817 21.7919 3.04698 21.5949 3.3009 21.4358C3.70478 21.1828 4.51992 21.0254 5.37 21.0254C6.19284 21.0154 7.00894 21.1748 7.76757 21.4936C7.97136 21.5825 8.16301 21.6969 8.33789 21.8342C8.62298 22.0777 8.82041 22.4079 8.89996 22.7743H9.8081V20.3079H8.7961V20.594C8.7961 20.686 8.7041 20.8074 8.5201 20.7072C8.06378 20.4698 6.78128 19.9564 5.209 19.95Z" fill="#0F0F0F"/>
<path d="M17.388 19.95C15.7937 19.95 14.1008 20.5019 13.144 21.3713C12.7792 21.7034 12.4881 22.1082 12.2892 22.5596C12.0903 23.011 11.9882 23.4991 11.9893 23.9924C11.9836 24.4877 12.0837 24.9785 12.2828 25.4321C12.4819 25.8857 12.7755 26.2916 13.144 26.6226C14.1744 27.5491 15.7201 28.0459 17.388 28.0459C19.0588 28.0459 20.6375 27.5546 21.643 26.6226C22.0006 26.2838 22.2858 25.8761 22.4816 25.424C22.6773 24.972 22.7794 24.485 22.7819 23.9924C22.7868 23.5003 22.688 23.0127 22.4917 22.5614C22.2955 22.1101 22.0063 21.7052 21.643 21.3733C20.5639 20.3944 19.1517 19.95 17.388 19.95ZM17.388 21.0024C18.2602 21.0024 19.1001 21.3162 19.6659 21.8728C20.2133 22.4119 20.4993 23.1737 20.4993 23.9888C20.4993 24.8425 20.2391 25.5344 19.6659 26.1048C19.0928 26.6752 18.2722 26.9806 17.388 26.9806C16.5104 26.9806 15.6722 26.6688 15.1064 26.1048C14.8358 25.824 14.6233 25.4925 14.4812 25.1294C14.3391 24.7663 14.2702 24.3786 14.2784 23.9888C14.2784 23.1773 14.5608 22.4128 15.1064 21.8728C15.6722 21.3134 16.5159 21.0024 17.388 21.0024Z" fill="#0F0F0F"/>
</svg>
