<svg viewBox="0 0 48 48" fill="none" xmlns="http://www.w3.org/2000/svg">
<path d="M40.5596 7.0814C36.3374 0.961065 27.9317 -0.832155 21.8889 3.02717L11.2365 9.88818C8.33127 11.7204 6.317 14.7221 5.73596 18.1136C5.23239 20.9594 5.65849 23.8831 7.01425 26.417C6.08458 27.8204 5.46481 29.3797 5.19366 31.017C4.57388 34.4865 5.38734 38.0729 7.40161 40.9187C11.6626 47.039 20.0295 48.8323 26.0724 44.9729L36.7247 38.1509C39.6299 36.3187 41.6442 33.317 42.2253 29.9255C42.7288 27.0797 42.3027 24.156 40.947 21.6221C41.8766 20.2187 42.4964 18.6594 42.7676 17.0221C43.4261 13.5136 42.6126 9.92717 40.5596 7.0814Z" fill="#FF3E00"/>
<path d="M20.843 41.5034C17.3955 42.4 13.7931 41.0356 11.7788 38.1119C10.5393 36.3966 10.0744 34.2526 10.423 32.1475C10.5005 31.7966 10.578 31.4848 10.6555 31.1339L10.8491 30.5102L11.3914 30.9C12.6697 31.8356 14.0642 32.5373 15.5749 33.0051L15.9623 33.1221L15.9236 33.5119C15.8848 34.0577 16.0398 34.6424 16.3497 35.1102C16.9694 36.0068 18.054 36.4356 19.0999 36.1627C19.3323 36.0848 19.5647 36.0068 19.7584 35.8899L30.3721 29.0678C30.9144 28.717 31.263 28.2102 31.3792 27.5865C31.4954 26.9627 31.3405 26.3 30.9919 25.7933C30.3721 24.8966 29.2875 24.5068 28.2416 24.7797C28.0092 24.8577 27.7768 24.9356 27.5831 25.0526L23.5158 27.6644C22.8573 28.0933 22.1213 28.4051 21.3466 28.6C17.8991 29.4967 14.2966 28.1322 12.2824 25.2085C11.0816 23.4933 10.578 21.3492 10.9654 19.2441C11.314 17.217 12.5535 15.3848 14.2966 14.2933L24.949 7.47122C25.6076 7.04241 26.3435 6.73054 27.1183 6.49665C30.5658 5.60004 34.1682 6.96444 36.1825 9.88817C37.422 11.6034 37.8869 13.7475 37.5382 15.8526C37.4608 16.2034 37.3833 16.5153 37.2671 16.8661L37.0734 17.4899L36.5311 17.1C35.2528 16.1644 33.8583 15.4627 32.3476 14.995L31.9603 14.878L31.999 14.4882C32.0377 13.9424 31.8828 13.3577 31.5729 12.8899C30.9531 11.9933 29.8685 11.6034 28.8226 11.8763C28.5902 11.9543 28.3578 12.0322 28.1641 12.1492L17.5505 18.9712C17.0082 19.3221 16.6595 19.8289 16.5433 20.4526C16.4271 21.0763 16.5821 21.739 16.9307 22.2458C17.5505 23.1424 18.6351 23.5322 19.681 23.2594C19.9134 23.1814 20.1458 23.1034 20.3395 22.9865L24.4067 20.3746C25.0652 19.9458 25.8012 19.6339 26.576 19.4C30.0235 18.5034 33.6259 19.8678 35.6402 22.7916C36.8797 24.5068 37.3446 26.6509 36.9959 28.756C36.6473 30.7831 35.4078 32.6153 33.6646 33.7068L23.0122 40.5289C22.3537 40.9577 21.6177 41.2695 20.843 41.5034Z" fill="white"/>
</svg>
