<svg width="48" height="48" viewBox="0 0 48 48" fill="none" xmlns="http://www.w3.org/2000/svg">
<path fill-rule="evenodd" clip-rule="evenodd" d="M24.0004 10.2C17.8666 10.2 14.0339 13.2668 12.4998 19.4006C14.8001 16.3337 17.4835 15.1838 20.55 15.9501C22.2995 16.3872 23.5507 17.6567 24.9343 19.0623C27.1895 21.3511 29.7999 24 35.5002 24C41.6332 24 45.4668 20.9331 47 14.8003C44.7006 17.8671 42.0172 19.017 38.9507 18.2498C37.2002 17.8127 35.9491 16.5432 34.5655 15.1385C32.3102 12.8479 29.7008 10.2 24.0004 10.2ZM12.4998 24C6.3668 24 2.53324 27.0668 1 33.2006C3.30032 30.1337 5.98372 28.9838 9.0493 29.7501C10.7998 30.1872 12.0509 31.4567 13.4345 32.8623C15.6897 35.1511 18.2992 37.8 24.0004 37.8C30.1334 37.8 33.967 34.734 35.5002 28.6003C33.1999 31.6671 30.5165 32.817 27.45 32.0507C25.7004 31.6127 24.4493 30.3432 23.0657 28.9385C20.8105 26.6497 18.2001 24 12.4998 24V24Z" fill="#38BDF8"/>
</svg>
