<svg width="48" height="48" viewBox="0 0 48 48" fill="none" xmlns="http://www.w3.org/2000/svg">
<path d="M23.0409 27.5933C24.742 28.5675 25.3311 30.7364 24.3568 32.4374C23.3826 34.1386 21.2138 34.7278 19.5127 33.7534C19.5055 33.7493 19.4984 33.7454 19.4914 33.7411L11.0613 28.8743L7.65539 34.7732L1 30.9311L5.14115 23.7586L7.35956 25.0394L9.43021 21.4532L7.21165 20.1724L11.3528 13L18.008 16.8424L14.6108 22.7265L23.0409 27.5934M47 24.0072L41.0843 34.2535H29.2525L23.3367 24.0072L29.2525 13.761H41.0843L47 24.0072ZM35.1684 19.2746C32.5547 19.2746 30.4357 21.3936 30.4357 24.0072C30.4357 26.6211 32.5547 28.7399 35.1684 28.7399C37.7822 28.7399 39.9012 26.6211 39.9012 24.0072C39.9012 21.3936 37.7822 19.2746 35.1684 19.2746Z" fill="#030505"/>
</svg>
