<svg width="48" height="48" viewBox="0 0 48 48" fill="none" xmlns="http://www.w3.org/2000/svg">
<path d="M41.7031 2H6.29688C3.92378 2 2 3.92378 2 6.29688V41.7031C2 44.0762 3.92378 46 6.29688 46H41.7031C44.0762 46 46 44.0762 46 41.7031V6.29688C46 3.92378 44.0762 2 41.7031 2Z" fill="#3178C6"/>
<path fill-rule="evenodd" clip-rule="evenodd" d="M28.955 36.6055V40.9211C29.6486 41.2808 30.4689 41.5504 31.416 41.7303C32.363 41.9101 33.3611 42 34.4104 42C35.4331 42 36.4045 41.9011 37.3249 41.7033C38.2452 41.5055 39.0522 41.1796 39.7458 40.7255C40.4394 40.2716 40.9885 39.6781 41.3931 38.9453C41.7977 38.2126 42 37.3068 42 36.2279C42 35.4457 41.8844 34.7602 41.6532 34.1713C41.422 33.5824 41.0886 33.0587 40.6528 32.6002C40.2171 32.1416 39.6947 31.7303 39.0856 31.3661C38.4764 31.002 37.7895 30.6581 37.0248 30.3345C36.4646 30.1007 35.9622 29.8737 35.5175 29.6534C35.0729 29.4331 34.695 29.2084 34.3837 28.9791C34.0725 28.7498 33.8324 28.5071 33.6635 28.2509C33.4946 27.9946 33.41 27.7047 33.41 27.3809C33.41 27.0843 33.4856 26.8168 33.6368 26.5785C33.788 26.3403 34.0014 26.1358 34.277 25.9649C34.5528 25.7941 34.8906 25.6615 35.2907 25.5671C35.691 25.4727 36.1355 25.4255 36.6246 25.4255C36.9803 25.4255 37.356 25.4525 37.7517 25.5064C38.1474 25.5603 38.5453 25.6435 38.9455 25.7559C39.3457 25.8683 39.7347 26.0099 40.1126 26.1807C40.4905 26.3516 40.8395 26.5493 41.1597 26.7741V22.7417C40.5106 22.49 39.8014 22.3034 39.0322 22.1821C38.263 22.0607 37.3804 22 36.3845 22C35.3708 22 34.4104 22.1102 33.5034 22.3304C32.5964 22.5507 31.7984 22.8946 31.1091 23.3621C30.42 23.8297 29.8754 24.4253 29.4753 25.1491C29.0751 25.8728 28.875 26.7381 28.875 27.7451C28.875 29.0308 29.2418 30.1277 29.9755 31.0358C30.709 31.9438 31.8228 32.7125 33.3167 33.3419C33.9036 33.5847 34.4505 33.8228 34.9573 34.0566C35.4642 34.2904 35.9022 34.5332 36.2711 34.7849C36.6401 35.0366 36.9314 35.3109 37.1449 35.6076C37.3583 35.9042 37.465 36.2414 37.465 36.6191C37.465 36.8978 37.3982 37.1562 37.2649 37.3945C37.1315 37.6328 36.9291 37.8395 36.658 38.0148C36.3868 38.1902 36.0488 38.3272 35.6443 38.4261C35.2396 38.5251 34.7662 38.5745 34.2237 38.5745C33.2989 38.5745 32.383 38.4104 31.476 38.0822C30.569 37.7541 29.7286 37.2619 28.955 36.6055V36.6055ZM21.7824 25.9726H27.2557V22.431H12V25.9726H17.4465V41.7414H21.7824V25.9726Z" fill="white"/>
</svg>
