<svg viewBox="0 0 48 48">
<path d="M38.978 17.3313C38.75 17.5073 34.725 19.7637 34.725 24.7811C34.725 30.5845 39.8467 32.6375 40 32.6884C39.9764 32.8135 39.1863 35.5001 37.2996 38.2376C35.6172 40.6465 33.8602 43.0515 31.1873 43.0515C28.5144 43.0515 27.8266 41.5068 24.7409 41.5068C21.7339 41.5068 20.6648 43.1024 18.2199 43.1024C15.775 43.1024 14.069 40.8733 12.1076 38.1359C9.83565 34.9214 8 29.9275 8 25.1878C8 17.5855 12.9684 13.5537 17.8582 13.5537C20.4565 13.5537 22.6223 15.2509 24.2535 15.2509C25.8062 15.2509 28.2275 13.452 31.1834 13.452C32.3036 13.452 36.3287 13.5537 38.978 17.3313V17.3313ZM29.7801 10.2335C31.0026 8.79052 31.8673 6.78828 31.8673 4.78604C31.8673 4.50838 31.8438 4.22682 31.7927 4C29.8037 4.0743 27.4374 5.31788 26.0106 6.96426C24.8903 8.2313 23.8447 10.2335 23.8447 12.2632C23.8447 12.5682 23.8958 12.8732 23.9194 12.971C24.0452 12.9944 24.2496 13.0218 24.454 13.0218C26.2385 13.0218 28.483 11.833 29.7801 10.2335Z" fill="currentColor"/>
</svg>
