<svg viewBox="0 0 48 48">
<path fill-rule="evenodd" clip-rule="evenodd" d="M25.9429 24.5714L20.5715 19.5429V28H22.1715V23.3143L27.5429 28.3429V19.8857H25.9429V24.5714ZM13.4857 19.4286C10.9715 19.4286 9.0286 21.3714 9.0286 23.8857C9.0286 26.2857 11.0857 28.3429 13.4857 28.3429C16 28.3429 17.9429 26.4 17.9429 23.8857C17.9429 21.3714 16 19.4286 13.4857 19.4286ZM13.4857 26.7429C11.8857 26.7429 10.6286 25.4857 10.6286 23.8857C10.6286 22.2857 11.8857 21.0286 13.4857 21.0286C15.0857 21.0286 16.3429 22.2857 16.3429 23.8857C16.3429 25.4857 15.0857 26.7429 13.4857 26.7429ZM6.28574 23.8857C5.8286 23.5429 5.25717 23.3143 4.45717 23.0857C2.85717 22.6286 2.85717 22.1714 2.85717 21.9429C2.85717 21.4857 3.4286 21.0286 4.2286 21.0286C4.91431 21.0286 5.48574 21.3714 5.71431 21.4857L5.8286 21.6L7.08574 20.6857L6.97145 20.5714C6.97145 20.5714 5.94288 19.4286 4.2286 19.4286C3.4286 19.4286 2.6286 19.6572 2.05717 20.1143C1.48574 20.5714 1.14288 21.2572 1.14288 21.9429C1.14288 22.6286 1.48574 23.3143 2.05717 23.7714C2.51431 24.1143 3.08574 24.3429 3.88574 24.5714C5.48574 25.0286 5.48574 25.4857 5.48574 25.7143C5.48574 26.1714 4.91431 26.6286 4.11431 26.6286C3.4286 26.6286 2.85717 26.2857 2.6286 26.1714L2.51431 26.0572L1.25717 26.9714L1.37145 27.0857C1.37145 27.0857 2.40003 28.2286 4.11431 28.2286C4.91431 28.2286 5.71431 28 6.28574 27.5429C6.85717 27.0857 7.20003 26.4 7.20003 25.7143C7.20003 25.0286 6.85717 24.4572 6.28574 23.8857ZM34.6286 19.4286C32.1143 19.4286 30.1715 21.3714 30.1715 23.8857C30.1715 26.4 32.2286 28.3429 34.6286 28.3429C37.1429 28.3429 39.0857 26.4 39.0857 23.8857C39.0857 21.3714 37.0286 19.4286 34.6286 19.4286ZM34.6286 26.7429C33.0286 26.7429 31.7715 25.4857 31.7715 23.8857C31.7715 22.2857 33.0286 21.0286 34.6286 21.0286C36.2286 21.0286 37.4857 22.2857 37.4857 23.8857C37.4857 25.4857 36.1143 26.7429 34.6286 26.7429ZM41.8286 23.7714C42.2857 24.1143 42.8572 24.3429 43.6572 24.5714C45.2572 25.0286 45.2572 25.4857 45.2572 25.7143C45.2572 26.1714 44.6857 26.6286 43.8857 26.6286C43.2 26.6286 42.6286 26.2857 42.4 26.1714H42.2857L41.0286 27.0857L41.1429 27.2C41.1429 27.2 42.1715 28.3429 43.8857 28.3429C44.6857 28.3429 45.4857 28.1143 46.0572 27.6572C46.6286 27.2 46.9715 26.5143 46.9715 25.8286C46.9715 25.1429 46.6286 24.4572 46.0572 24C45.6 23.6572 45.0286 23.4286 44.2286 23.2C42.6286 22.7429 42.6286 22.2857 42.6286 22.0572C42.6286 21.6 43.2 21.1429 44 21.1429C44.6857 21.1429 45.2572 21.4857 45.4857 21.6L45.6 21.7143L46.8572 20.8L46.7429 20.6857C46.7429 20.6857 45.7143 19.5429 44 19.5429C43.2 19.5429 42.4 19.7714 41.8286 20.2286C41.2572 20.6857 40.9143 21.3714 40.9143 22.0572C40.8 22.7429 41.1429 23.3143 41.8286 23.7714Z" fill="currentColor"/>
</svg>
