<svg viewBox="0 0 48 48">
<path fill="currentColor" d="M35.989 20.403v.9h.878c.384 0 .636.241.78.398.114.128 2.644 2.997 2.705 3.072.06.076.06.077.06.125v1.421c0 .065-.006.13-.019.194a.31.31 0 0 1-.194.173c-.084.01-.167.016-.25.016l-.88-.001v.9h4.933v-.9h-.928c-.084 0-.167-.005-.249-.016a.306.306 0 0 1-.194-.173 1.011 1.011 0 0 1-.02-.194v-1.42a.194.194 0 0 1 .033-.133l2.737-3.122c.251-.28.382-.34.711-.34H47v-.9h-4.065v.897h.613a.172.172 0 0 1 .147.276c-.013.019-1.702 2.005-1.723 2.024-.021.02-.035.015-.05-.006-.016-.021-1.685-2.018-1.685-2.018-.118-.144-.026-.276.112-.276h.598v-.898H35.99ZM23.89 20.403v.9h.787c.569 0 .607.316.607.592v4.21c0 .253.015.599-.348.599h-.971v.898h4.148v-.898h-1.012c-.403 0-.422-.185-.427-.578v-3.607l5.698 5.084h1.449l-.076-5.742c.007-.42.033-.56.467-.56h.908v-.898h-4.232v.898h.93c.426 0 .498.165.503.56l.051 3.005-4.946-4.463H23.89ZM5.209 19.95c-.891 0-1.904.167-2.76.552-.799.357-1.449.93-1.449 1.88-.001.498.188.977.529 1.34.23.213.604.576 1.577.79.435.091 1.365.24 2.292.337.926.098 1.824.184 2.192.282.293.075.785.176.785.728s-.518.718-.608.754c-.09.035-.712.32-1.83.32a7.78 7.78 0 0 1-2.177-.374c-.417-.149-.854-.345-1.261-.843a1.447 1.447 0 0 1-.263-.798H1.224v2.834H2.35v-.384a.16.16 0 0 1 .243-.138c.53.23 1.08.409 1.645.532.59.123.972.212 1.706.212a7.283 7.283 0 0 0 2.287-.323 3.992 3.992 0 0 0 1.36-.67 1.862 1.862 0 0 0 .727-1.492 2.087 2.087 0 0 0-.588-1.466 2.588 2.588 0 0 0-.725-.496 5.338 5.338 0 0 0-.894-.312c-.584-.143-1.894-.321-2.52-.384-.657-.068-1.797-.162-2.252-.303-.138-.043-.42-.177-.42-.503 0-.233.129-.43.383-.59.404-.252 1.219-.41 2.069-.41a6 6 0 0 1 2.398.469c.203.088.395.203.57.34.285.244.482.574.562.94h.908v-2.466H8.796v.286c0 .092-.092.213-.276.113-.456-.237-1.739-.75-3.311-.757ZM17.388 19.95c-1.594 0-3.287.552-4.244 1.421a3.534 3.534 0 0 0-1.155 2.621 3.482 3.482 0 0 0 1.155 2.63c1.03.927 2.576 1.424 4.244 1.424 1.67 0 3.25-.491 4.255-1.423a3.648 3.648 0 0 0 1.139-2.63 3.5 3.5 0 0 0-1.139-2.62c-1.08-.979-2.491-1.423-4.255-1.423Zm0 1.052c.872 0 1.712.314 2.278.87.547.54.833 1.302.833 2.117 0 .854-.26 1.545-.833 2.116-.573.57-1.394.876-2.278.876-.878 0-1.716-.312-2.282-.876a2.96 2.96 0 0 1-.828-2.116c0-.812.283-1.576.828-2.116.566-.56 1.41-.87 2.282-.87Z"/>
</svg>
